<?xml version="1.0" standalone="no"?>
<!DOCTYPE svg PUBLIC "-//W3C//DTD SVG 20010904//EN"
 "http://www.w3.org/TR/2001/REC-SVG-20010904/DTD/svg10.dtd">
<svg version="1.0" xmlns="http://www.w3.org/2000/svg"
 width="700.000000pt" height="700.000000pt" viewBox="0 0 700.000000 700.000000"
 preserveAspectRatio="xMidYMid meet">
<metadata>
Created by potrace 1.11, written by Peter Selinger 2001-2013
</metadata>
<g transform="translate(0.000000,700.000000) scale(0.100000,-0.100000)"
fill="#000000" stroke="none">
<path d="M698 6980 c-170 -36 -312 -113 -438 -240 -128 -127 -205 -268 -241
-443 -18 -89 -19 -178 -19 -2797 0 -2619 1 -2708 19 -2797 36 -175 113 -316
241 -443 127 -128 268 -205 443 -241 89 -18 178 -19 2797 -19 2619 0 2708 1
2797 19 175 36 316 113 443 241 128 127 205 268 241 443 18 89 19 178 19 2797
0 2619 -1 2708 -19 2797 -36 175 -113 316 -241 443 -127 128 -268 205 -443
241 -89 18 -177 19 -2802 18 -2587 0 -2714 -1 -2797 -19z m4775 -2388 l307
-307 -1358 -1358 -1357 -1357 -810 810 -810 810 308 307 307 308 500 -500 500
-500 1048 1048 c576 576 1049 1047 1052 1047 3 0 143 -138 313 -308z"/>
</g>
</svg>
